<svg width="51" height="51" viewBox="0 0 51 51" fill="none" xmlns="http://www.w3.org/2000/svg">
<g clip-path="url(#clip0_51_58)">
<path d="M25.5 12.75C23.1528 12.75 21.25 10.8472 21.25 8.5C21.25 6.15279 23.1528 4.25 25.5 4.25C27.8472 4.25 29.75 6.15279 29.75 8.5C29.75 10.8472 27.8472 12.75 25.5 12.75Z" fill="#6A994E"/>
<path d="M17.2337 17.2337C18.0625 16.405 19.4862 14.875 22.2488 14.875C22.695 14.875 25.2663 14.875 27.6463 14.875C33.49 14.8538 38.25 10.0938 38.25 4.25H42.5C42.5 10.965 38.0163 16.66 31.875 18.5087V46.75H27.625V34H23.375V46.75H19.125V21.3563L10.7312 29.75L7.735 26.7537L17.2337 17.2337Z" fill="#6A994E"/>
</g>
<defs>
<clipPath id="clip0_51_58">
<rect width="51" height="51" fill="white" transform="matrix(-1 0 0 1 51 0)"/>
</clipPath>
</defs>
</svg>
