<svg width="51" height="51" viewBox="0 0 51 51" fill="none" xmlns="http://www.w3.org/2000/svg">
<g clip-path="url(#clip0_51_50)">
<path d="M25.5 12.75C27.8472 12.75 29.75 10.8472 29.75 8.5C29.75 6.15279 27.8472 4.25 25.5 4.25C23.1528 4.25 21.25 6.15279 21.25 8.5C21.25 10.8472 23.1528 12.75 25.5 12.75Z" fill="#6A994E"/>
<path d="M33.7663 17.2337C32.9375 16.405 31.5138 14.875 28.7512 14.875C28.305 14.875 25.7337 14.875 23.3537 14.875C17.51 14.8538 12.75 10.0938 12.75 4.25H8.5C8.5 10.965 12.9837 16.66 19.125 18.5087V46.75H23.375V34H27.625V46.75H31.875V21.3563L40.2688 29.75L43.265 26.7537L33.7663 17.2337Z" fill="#6A994E"/>
</g>
<defs>
<clipPath id="clip0_51_50">
<rect width="51" height="51" fill="white"/>
</clipPath>
</defs>
</svg>
