<svg width="73" height="73" viewBox="0 0 73 73" fill="none" xmlns="http://www.w3.org/2000/svg">
<g clip-path="url(#clip0_51_34)">
<path d="M64.0271 53.4117L9.36837 56.2708L9.12504 51.7083L63.8142 48.8492L64.0271 53.4117ZM63.875 59.2517H9.12504V63.8142H63.875V59.2517ZM66.9167 15.2083V36.5C66.9167 39.8458 64.1792 42.5833 60.8334 42.5833H12.1667C8.82087 42.5833 6.08337 39.8458 6.08337 36.5V15.2083C6.08337 11.8625 8.82087 9.125 12.1667 9.125H60.8334C64.1792 9.125 66.9167 11.8625 66.9167 15.2083ZM60.8334 18.25C55.7234 18.25 51.5867 21.2308 51.0696 25.0329C49.123 22.8125 42.7659 16.7292 31.1771 16.7292C16.9725 16.7292 10.6459 25.8542 10.6459 25.8542C10.6459 25.8542 16.9725 34.9792 31.1771 34.9792C42.7659 34.9792 49.123 28.8958 51.0696 26.6754C51.5867 30.4775 55.7234 33.4583 60.8334 33.4583V18.25Z" fill="#6A994E"/>
</g>
<defs>
<clipPath id="clip0_51_34">
<rect width="73" height="73" fill="white"/>
</clipPath>
</defs>
</svg>
