<svg width="25" height="27" viewBox="0 0 25 27" fill="none" xmlns="http://www.w3.org/2000/svg">
<g filter="url(#filter0_d_48_8)">
<path d="M18.0836 1.707C17.3852 1.36418 13.8449 1.75575 11.2911 4.2045C7.26924 8.22137 7.3658 13.5114 7.3658 13.5114C7.3658 13.5114 7.2333 14.0561 6.66643 13.2664C5.42643 11.6867 6.07612 8.05106 6.14862 7.54418C6.25112 6.83137 5.79643 6.8095 5.60674 7.04575C1.12705 13.2661 5.17299 18.3601 7.82268 19.977C10.9239 21.8692 17.043 21.8686 19.4808 16.4995C22.5155 9.81293 18.9583 2.13606 18.0836 1.707Z" fill="#82B23F"/>
</g>
<path d="M18.0138 7.60668C18.3248 5.52137 18.3266 3.51262 18.071 1.70262C17.3491 1.36887 13.832 1.76762 11.291 4.2045C7.26915 8.22137 7.36571 13.5114 7.36571 13.5114C7.36571 13.5114 7.23321 14.0561 6.66633 13.2664C5.42633 11.6867 6.07602 8.05106 6.14852 7.54418C6.25102 6.83137 5.79633 6.8095 5.60665 7.04575C2.89915 10.8051 3.30758 14.1514 4.6379 16.5692C5.96946 17.9989 7.48477 18.9386 8.88821 19.1479C12.8882 19.7448 16.9732 14.5776 18.0138 7.60668Z" fill="#B3E856"/>
<path d="M18.0139 7.60668C18.3248 5.52137 18.3267 3.51262 18.0711 1.70262C17.3492 1.36887 14.5476 2.52824 12.0064 4.96574C7.9845 8.9823 7.36575 13.5114 7.36575 13.5114C7.36575 13.5114 7.23325 14.0561 6.66637 13.2664C5.42637 11.6867 5.85262 8.95762 5.92544 8.45105C6.02825 7.73793 5.57325 7.71637 5.38356 7.95262C2.67637 11.712 3.30794 14.1517 4.63856 16.5692C5.97012 17.9989 7.48544 18.9386 8.88887 19.1479C12.8882 19.7448 16.9733 14.5776 18.0139 7.60668Z" fill="#98D13F"/>
<defs>
<filter id="filter0_d_48_8" x="-2.43187e-05" y="6.19888e-06" width="24.2841" height="26.7239" filterUnits="userSpaceOnUse" color-interpolation-filters="sRGB">
<feFlood flood-opacity="0" result="BackgroundImageFix"/>
<feColorMatrix in="SourceAlpha" type="matrix" values="0 0 0 0 0 0 0 0 0 0 0 0 0 0 0 0 0 0 127 0" result="hardAlpha"/>
<feOffset dy="2"/>
<feGaussianBlur stdDeviation="1.8"/>
<feComposite in2="hardAlpha" operator="out"/>
<feColorMatrix type="matrix" values="0 0 0 0 0.219608 0 0 0 0 0.4 0 0 0 0 0.254902 0 0 0 1 0"/>
<feBlend mode="normal" in2="BackgroundImageFix" result="effect1_dropShadow_48_8"/>
<feBlend mode="normal" in="SourceGraphic" in2="effect1_dropShadow_48_8" result="shape"/>
</filter>
</defs>
</svg>
