<svg width="67" height="67" viewBox="0 0 67 67" fill="none" xmlns="http://www.w3.org/2000/svg">
<g clip-path="url(#clip0_51_30)">
<path d="M33.4999 55.8334H5.58325V50.25H21.6353C19.5974 42.4054 13.4278 36.2638 5.58325 34.2259C7.36992 33.7792 9.24034 33.5 11.1666 33.5C23.5058 33.5 33.4999 43.4942 33.4999 55.8334ZM61.4166 34.2259C59.6299 33.7792 57.7595 33.5 55.8333 33.5C47.6537 33.5 40.5349 37.9109 36.6266 44.4713C37.4362 46.3138 38.1062 48.24 38.497 50.25C38.8599 52.0646 39.0553 53.935 39.0553 55.8334H44.6387H61.3887V50.25H45.3366C47.4024 42.4054 53.572 36.2638 61.4166 34.2259ZM43.6616 30.7642C45.8391 24.9296 49.887 20.0442 55.0795 16.8059C43.1033 17.1967 33.4999 26.9954 33.4999 39.0834C33.4999 39.1113 33.4999 39.1392 33.4999 39.1392C36.152 35.5938 39.6416 32.7184 43.6616 30.7642ZM31.8808 24.7063C29.5358 18.5925 24.7899 13.6513 18.7041 11.1667C22.7241 16.3592 25.1249 22.8359 25.1249 29.8988C25.1249 30.485 25.0412 31.0434 25.0133 31.6017C26.2137 32.2717 27.3303 33.0534 28.4191 33.8909C29.0053 30.5967 30.2337 27.4979 31.8808 24.7063Z" fill="#6A994E"/>
</g>
<defs>
<clipPath id="clip0_51_30">
<rect width="67" height="67" fill="white"/>
</clipPath>
</defs>
</svg>
