<svg width="93" height="93" viewBox="0 0 93 93" fill="none" xmlns="http://www.w3.org/2000/svg">
<g clip-path="url(#clip0_51_18)">
<path d="M78.0832 24.964C77.5229 23.3144 75.9355 22.225 74.1614 22.225C74.068 22.225 73.9747 22.225 73.8813 22.225H70.7999L69.835 19.2059C69.3993 17.3384 67.7185 16 65.8199 16C63.9213 16 62.2405 17.3384 61.8048 19.237L60.8399 22.225H57.7897C57.6963 22.225 57.6029 22.225 57.5095 22.225C55.7354 22.225 54.148 23.3144 53.5878 24.964C52.9964 26.707 53.7123 28.6056 55.3308 29.5705L58.0387 31.189L56.7937 35.0485C56.0778 36.8537 56.6692 38.9391 58.1943 40.0907C58.9102 40.6199 59.7817 40.9 60.622 40.9C61.5869 40.9 62.5207 40.5576 63.2988 39.904L65.8199 37.7252L68.341 39.904C69.1192 40.5576 70.0529 40.9 71.0178 40.9C71.8582 40.9 72.7297 40.6199 73.4455 40.0907C75.0018 38.9391 75.562 36.8537 74.8462 35.0485L73.6323 31.189L76.3402 29.5705C77.9275 28.6056 78.6434 26.707 78.0832 24.964ZM65.8199 31.5625C64.108 31.5625 62.7074 30.1619 62.7074 28.45C62.7074 26.7381 64.108 25.3375 65.8199 25.3375C67.5318 25.3375 68.9324 26.7381 68.9324 28.45C68.9324 30.1619 67.5318 31.5625 65.8199 31.5625Z" fill="#6A994E"/>
<path d="M51.7824 42.4874C50.4441 41.149 48.8567 40.2152 47.1448 39.5927V34.675H44.0323V38.9702C43.69 38.9391 43.3165 38.8769 42.9741 38.8769C39.7993 38.8769 36.5935 40.0907 34.1657 42.5185C33.6677 43.0165 33.232 43.5767 32.8273 44.1681L28.4698 42.5185C23.6143 40.8066 18.2608 43.3589 16.549 48.1832C15.7086 50.5176 15.8331 53.0699 16.9225 55.3109C17.6383 56.8049 18.7277 58.0187 20.035 58.9214C18.8522 63.1232 19.8482 67.792 23.1475 71.0912C26.4467 74.3905 31.1466 75.3865 35.3173 74.2037C36.22 75.511 37.4338 76.6004 38.9278 77.3162C40.2351 77.9387 41.5735 78.25 42.9429 78.25C44.0012 78.25 45.0595 78.0632 46.0866 77.7209C50.9421 76.009 53.4943 70.6555 51.7513 65.7377L50.1328 61.4736C50.6931 61.069 51.2533 60.6332 51.7824 60.1352C54.4903 57.4274 55.6419 53.7857 55.3307 50.2686H59.5948V47.1561H54.646C54.0546 45.4442 53.1208 43.8569 51.7824 42.4874ZM24.3302 54.2526C23.5521 53.9725 22.9296 53.4122 22.5561 52.6652C22.1826 51.9182 22.1515 51.0779 22.4316 50.2997C23.023 48.6812 24.7971 47.8409 26.3533 48.4011L36.1888 52.105C32.6095 53.9725 28.003 55.5599 24.3302 54.2526ZM44.0012 71.8382C43.2231 72.1184 42.3827 72.0872 41.6357 71.7137C40.8887 71.3714 40.3285 70.7177 40.0483 69.9396C38.7411 66.2669 40.3285 61.6915 42.2271 58.1121L45.8998 67.8542C46.4601 69.4727 45.6197 71.278 44.0012 71.8382ZM47.7673 55.2175L45.8687 50.2064C45.8687 50.1752 45.8376 50.1441 45.8064 50.113C45.7442 49.9885 45.682 49.864 45.6197 49.7395C45.5575 49.615 45.4952 49.5216 45.4018 49.3971C45.3084 49.3037 45.2151 49.2104 45.1217 49.117C45.0283 49.0236 44.935 48.9302 44.8416 48.8369C44.7482 48.7435 44.6237 48.6812 44.4992 48.619C44.3747 48.5567 44.2813 48.4634 44.1257 48.4322C44.0946 48.4322 44.0634 48.4011 44.0323 48.37L39.0523 46.5025C40.1728 45.5999 41.5112 45.0707 42.9741 45.0707C44.6237 45.0707 46.2111 45.7244 47.3627 46.9071C49.6348 49.1792 49.7593 52.7586 47.7673 55.2175Z" fill="#6A994E"/>
</g>
<defs>
<clipPath id="clip0_51_18">
<rect width="93" height="93" fill="white"/>
</clipPath>
</defs>
</svg>
