<svg width="100" height="100" viewBox="0 0 100 100" fill="none" xmlns="http://www.w3.org/2000/svg">
<rect width="100" height="100" fill="#D9D9D9" fill-opacity="0.5"/>
<path d="M37.4433 58.06C37.4433 58.06 28.2217 48.76 28.2217 41.32C28.2217 33.88 30.6807 28.92 33.1399 19C33.1399 19 44.2059 23.9601 44.2059 36.36C44.2059 48.76 37.4433 58.06 37.4433 58.06ZM19 78.5201L44.2059 52.48C44.2059 52.48 49.5394 37.8013 53.4276 33.88C58.3457 28.92 64.4936 28.92 76.7891 28.9201C76.7891 28.9201 72.0404 40.4437 68.1823 46.2801C63.264 53.7201 45.4354 53.1001 45.4354 53.1001L21.4591 81L19 78.5201ZM80 63.8255C80 63.8255 66.538 70.5928 60.4103 69.3916C54.2828 68.1903 48.772 64.0573 40.9987 60.3957C40.9987 60.3957 52.5521 53.6175 62.765 55.6196C72.9777 57.6215 80 63.8255 80 63.8255Z" fill="#6A994E"/>
</svg>
